<svg width="54" height="62" fill="none" xmlns="http://www.w3.org/2000/svg"><rect width="54" height="54" rx="19" fill="#4D8DFF"/><path d="M27.482 25.643l1.17.544 1.74-.518v-1.214c0-2.062-1.74-3.714-3.82-3.714-2.072 0-3.822 1.643-3.822 3.687v5.536c0 .51-.41.91-.91.91s-.911-.4-.911-.91v-2.34H18V30a3.83 3.83 0 0 0 3.83 3.83c2.099 0 3.83-1.687 3.83-3.777V24.59c0-.5.411-.91.911-.91s.911.41.911.91v1.054zm4.732 1.982v2.455c0 .5-.41.902-.91.902s-.911-.402-.911-.902v-2.41l-1.741.517-1.17-.544v2.393c0 2.098 1.723 3.794 3.83 3.794a3.83 3.83 0 0 0 3.83-3.83v-2.375h-2.928z" fill="#fff"/></svg>