<svg width="54" height="54" fill="none" xmlns="http://www.w3.org/2000/svg"><g clip-path="url(#clip0_1_565)"><rect width="54" height="54" rx="19" fill="#F03E3D"/><path d="M32.571 20.428h.858c.16 0 .285-.125.285-.285v-.572a.282.282 0 0 0-.285-.285H20.286a.282.282 0 0 0-.286.285v.572c0 .16.125.285.286.285h.857c0 3.304 1.58 5.697 3.33 6.858-1.75 1.16-3.33 3.553-3.33 6.857h-.857a.282.282 0 0 0-.286.285V35c0 .16.125.286.286.286h13.143c.16 0 .285-.125.285-.286v-.572a.282.282 0 0 0-.285-.285h-.858c0-3.304-1.58-5.697-3.33-6.857 1.75-1.161 3.33-3.554 3.33-6.858zm-1.142 0a7.915 7.915 0 0 1-.76 3.429h-7.624a7.916 7.916 0 0 1-.76-3.429h9.144zm-.51 10.858h-8.124c.66-1.724 1.848-2.947 3.035-3.429h2.054c1.187.482 2.375 1.705 3.036 3.429z" fill="#fff"/></g><defs><clipPath id="clip0_1_565"><path fill="#fff" d="M0 0h54v54H0z"/></clipPath></defs></svg>