<svg width="36" height="35" fill="none" xmlns="http://www.w3.org/2000/svg"><rect x="1.458" y="1.458" width="32.148" height="32.083" rx="12.396" fill="#F90"/><rect x="1.458" y="1.458" width="32.148" height="32.083" rx="12.396" stroke="#fff" stroke-width="2.917"/><rect x="1.458" y="1.458" width="32.148" height="32.083" rx="12.396" stroke="#F90" stroke-width="2.917"/><path d="M25.814 12.24a.79.79 0 0 0-1.134 0l-9.602 9.788-3.691-3.763a.79.79 0 0 0-1.134 0 .828.828 0 0 0 0 1.156l4.258 4.34a.791.791 0 0 0 1.134 0l10.169-10.366a.828.828 0 0 0 0-1.156z" fill="#fff"/></svg>